<svg width="48" height="48" viewBox="0 0 48 48" fill="none" xmlns="http://www.w3.org/2000/svg">
<g clip-path="url(#clip0_2420_1635)">
<path d="M12.494 5.14284C9.45235 5.14284 6.76844 6.51991 5.14307 8.62392V17.9988C6.76844 20.1012 9.45235 21.4783 12.494 21.4783C13.9658 21.4783 15.3511 21.1499 16.5779 20.5798V39.4472H21.4785V13.3105C21.4785 8.80034 17.4567 5.14284 12.494 5.14284Z" stroke="#CCCCCC" stroke-width="2.1" stroke-miterlimit="10" stroke-linecap="round" stroke-linejoin="round"/>
<path d="M14.1274 18.2112C15.48 18.2112 16.5778 19.3089 16.5778 20.6615" stroke="#CCCCCC" stroke-width="2.1" stroke-miterlimit="10" stroke-linecap="round" stroke-linejoin="round"/>
<path d="M19.8447 42.7143H18.2112C17.3095 42.7143 16.5776 41.9825 16.5776 41.0807V39.4472H21.4783V41.0807C21.4783 41.9825 20.7464 42.7143 19.8447 42.7143Z" stroke="#CCCCCC" stroke-width="2.1" stroke-miterlimit="10" stroke-linecap="round" stroke-linejoin="round"/>
<path d="M9.63531 11.677C8.95903 11.677 8.41016 12.2259 8.41016 12.9021C8.41016 13.5784 8.95903 14.1273 9.63531 14.1273C10.3116 14.1273 10.8605 13.5784 10.8605 12.9021C10.8605 12.2259 10.3116 11.677 9.63531 11.677Z" fill="#CCCCCC"/>
<path d="M14.9409 8.91958C16.2134 9.47988 17.2279 10.4633 17.7718 11.6754" stroke="#CCCCCC" stroke-width="2.1" stroke-miterlimit="10" stroke-linecap="round" stroke-linejoin="round"/>
<path d="M35.3634 5.14284C38.405 5.14284 41.0889 6.51991 42.7143 8.62392V17.9988C41.0889 20.1012 38.405 21.4783 35.3634 21.4783C33.8916 21.4783 32.5063 21.1499 31.2795 20.5798V39.4472H26.3789V13.3105C26.3789 8.80034 30.4007 5.14284 35.3634 5.14284Z" stroke="#CCCCCC" stroke-width="2.1" stroke-miterlimit="10" stroke-linecap="round" stroke-linejoin="round"/>
<path d="M33.7301 18.2112C32.3775 18.2112 31.2798 19.3089 31.2798 20.6615" stroke="#CCCCCC" stroke-width="2.1" stroke-miterlimit="10" stroke-linecap="round" stroke-linejoin="round"/>
<path d="M28.0124 42.7143H29.646C30.5477 42.7143 31.2795 41.9825 31.2795 41.0807V39.4472H26.3789V41.0807C26.3789 41.9825 27.1107 42.7143 28.0124 42.7143Z" stroke="#CCCCCC" stroke-width="2.1" stroke-miterlimit="10" stroke-linecap="round" stroke-linejoin="round"/>
<path d="M32.9164 8.91958C31.6438 9.47988 30.6294 10.4633 30.0854 11.6754" stroke="#CCCCCC" stroke-width="2.1" stroke-miterlimit="10" stroke-linecap="round" stroke-linejoin="round"/>
<path d="M38.2222 11.677C37.5459 11.677 36.9971 12.2259 36.9971 12.9021C36.9971 13.5784 37.5459 14.1273 38.2222 14.1273C38.8985 14.1273 39.4474 13.5784 39.4474 12.9021C39.4474 12.2259 38.8985 11.677 38.2222 11.677Z" fill="#CCCCCC"/>
</g>
<defs>
<clipPath id="clip0_2420_1635">
<rect width="48" height="48" fill="white"/>
</clipPath>
</defs>
</svg>
