<svg width="24" height="24" viewBox="0 0 24 24" fill="none" xmlns="http://www.w3.org/2000/svg">
<path d="M4.57492 4.57498C4.85621 4.29378 5.23768 4.1358 5.63542 4.1358C6.03317 4.1358 6.41463 4.29378 6.69592 4.57498L11.9999 9.87898L17.3039 4.57498C17.5868 4.30175 17.9657 4.15055 18.359 4.15397C18.7523 4.15739 19.1285 4.31514 19.4066 4.59326C19.6848 4.87137 19.8425 5.24759 19.8459 5.64088C19.8493 6.03418 19.6982 6.41308 19.4249 6.69598L14.1209 12L19.4249 17.304C19.6982 17.5869 19.8493 17.9658 19.8459 18.3591C19.8425 18.7524 19.6848 19.1286 19.4066 19.4067C19.1285 19.6848 18.7523 19.8426 18.359 19.846C17.9657 19.8494 17.5868 19.6982 17.3039 19.425L11.9999 14.121L6.69592 19.425C6.41302 19.6982 6.03412 19.8494 5.64082 19.846C5.24752 19.8426 4.87131 19.6848 4.59319 19.4067C4.31508 19.1286 4.15733 18.7524 4.15391 18.3591C4.15049 17.9658 4.30168 17.5869 4.57492 17.304L9.87892 12L4.57492 6.69598C4.29372 6.41469 4.13574 6.03323 4.13574 5.63548C4.13574 5.23774 4.29372 4.85627 4.57492 4.57498Z" fill="#0071E4"/>
</svg>
