<svg width="32" height="32" viewBox="0 0 32 32" fill="none" xmlns="http://www.w3.org/2000/svg">
<path fill-rule="evenodd" clip-rule="evenodd" d="M3.19995 12.7998C3.19995 12.3755 3.36852 11.9685 3.66858 11.6684C3.96864 11.3684 4.3756 11.1998 4.79995 11.1998H21.2928C21.7171 11.1998 22.1241 11.3684 22.4241 11.6684C22.7242 11.9685 22.8928 12.3755 22.8928 12.7998C22.8928 13.2242 22.7242 13.6311 22.4241 13.9312C22.1241 14.2312 21.7171 14.3998 21.2928 14.3998H4.79995C4.3756 14.3998 3.96864 14.2312 3.66858 13.9312C3.36852 13.6311 3.19995 13.2242 3.19995 12.7998ZM3.19995 6.3998C3.19995 5.97546 3.36852 5.56849 3.66858 5.26843C3.96864 4.96838 4.3756 4.7998 4.79995 4.7998H27.2C27.6243 4.7998 28.0313 4.96838 28.3313 5.26843C28.6314 5.56849 28.8 5.97546 28.8 6.3998C28.8 6.82415 28.6314 7.23112 28.3313 7.53118C28.0313 7.83123 27.6243 7.9998 27.2 7.9998H4.79995C4.3756 7.9998 3.96864 7.83123 3.66858 7.53118C3.36852 7.23112 3.19995 6.82415 3.19995 6.3998ZM3.19995 19.1998C3.19995 18.7755 3.36852 18.3685 3.66858 18.0684C3.96864 17.7684 4.3756 17.5998 4.79995 17.5998H27.2C27.6243 17.5998 28.0313 17.7684 28.3313 18.0684C28.6314 18.3685 28.8 18.7755 28.8 19.1998C28.8 19.6242 28.6314 20.0311 28.3313 20.3312C28.0313 20.6312 27.6243 20.7998 27.2 20.7998H4.79995C4.3756 20.7998 3.96864 20.6312 3.66858 20.3312C3.36852 20.0311 3.19995 19.6242 3.19995 19.1998ZM3.19995 25.5998C3.19995 25.1755 3.36852 24.7685 3.66858 24.4684C3.96864 24.1684 4.3756 23.9998 4.79995 23.9998H21.2928C21.7171 23.9998 22.1241 24.1684 22.4241 24.4684C22.7242 24.7685 22.8928 25.1755 22.8928 25.5998C22.8928 26.0242 22.7242 26.4311 22.4241 26.7312C22.1241 27.0312 21.7171 27.1998 21.2928 27.1998H4.79995C4.3756 27.1998 3.96864 27.0312 3.66858 26.7312C3.36852 26.4311 3.19995 26.0242 3.19995 25.5998Z" fill="#52D116"/>
</svg>
