<svg width="20" height="20" viewBox="0 0 20 20" fill="none" xmlns="http://www.w3.org/2000/svg">
<path d="M7.84699 5.58438C8.80762 4.08625 9.37637 2.7025 9.67262 1.72375C9.78637 1.34875 10.2664 1.19563 10.5514 1.46438C14.847 5.515 16.2514 8.60813 16.5307 12.1819C16.7357 15.6388 15.037 18.715 10.4764 18.715C6.19512 18.715 3.03449 15.7269 3.46387 10.99C3.72137 8.16 4.82199 6.00313 5.70137 4.71938C5.97512 4.32 6.54574 4.31438 6.86137 4.68188L7.64824 5.59813C7.70262 5.66125 7.80199 5.65438 7.84699 5.58438Z" fill="url(#paint0_radial_2328_195)"/>
<path d="M7.84699 5.58438C8.80762 4.08625 9.37637 2.7025 9.67262 1.72375C9.78637 1.34875 10.2664 1.19563 10.5514 1.46438C14.847 5.515 16.2514 8.60813 16.5307 12.1819C16.7357 15.6388 15.037 18.715 10.4764 18.715C6.19512 18.715 3.03449 15.7269 3.46387 10.99C3.72137 8.16 4.82199 6.00313 5.70137 4.71938C5.97512 4.32 6.54574 4.31438 6.86137 4.68188L7.64824 5.59813C7.70262 5.66125 7.80199 5.65438 7.84699 5.58438Z" fill="url(#paint1_radial_2328_195)"/>
<path d="M7.84699 5.58438C8.80762 4.08625 9.37637 2.7025 9.67262 1.72375C9.78637 1.34875 10.2664 1.19563 10.5514 1.46438C14.847 5.515 16.2514 8.60813 16.5307 12.1819C16.7357 15.6388 15.037 18.715 10.4764 18.715C6.19512 18.715 3.03449 15.7269 3.46387 10.99C3.72137 8.16 4.82199 6.00313 5.70137 4.71938C5.97512 4.32 6.54574 4.31438 6.86137 4.68188L7.64824 5.59813C7.70262 5.66125 7.80199 5.65438 7.84699 5.58438Z" fill="url(#paint2_linear_2328_195)"/>
<path d="M7.84699 5.58438C8.80762 4.08625 9.37637 2.7025 9.67262 1.72375C9.78637 1.34875 10.2664 1.19563 10.5514 1.46438C14.847 5.515 16.2514 8.60813 16.5307 12.1819C16.7357 15.6388 15.037 18.715 10.4764 18.715C6.19512 18.715 3.03449 15.7269 3.46387 10.99C3.72137 8.16 4.82199 6.00313 5.70137 4.71938C5.97512 4.32 6.54574 4.31438 6.86137 4.68188L7.64824 5.59813C7.70262 5.66125 7.80199 5.65438 7.84699 5.58438Z" fill="url(#paint3_radial_2328_195)"/>
<path d="M7.84699 5.58438C8.80762 4.08625 9.37637 2.7025 9.67262 1.72375C9.78637 1.34875 10.2664 1.19563 10.5514 1.46438C14.847 5.515 16.2514 8.60813 16.5307 12.1819C16.7357 15.6388 15.037 18.715 10.4764 18.715C6.19512 18.715 3.03449 15.7269 3.46387 10.99C3.72137 8.16 4.82199 6.00313 5.70137 4.71938C5.97512 4.32 6.54574 4.31438 6.86137 4.68188L7.64824 5.59813C7.70262 5.66125 7.80199 5.65438 7.84699 5.58438Z" fill="url(#paint4_radial_2328_195)"/>
<path d="M7.84699 5.58438C8.80762 4.08625 9.37637 2.7025 9.67262 1.72375C9.78637 1.34875 10.2664 1.19563 10.5514 1.46438C14.847 5.515 16.2514 8.60813 16.5307 12.1819C16.7357 15.6388 15.037 18.715 10.4764 18.715C6.19512 18.715 3.03449 15.7269 3.46387 10.99C3.72137 8.16 4.82199 6.00313 5.70137 4.71938C5.97512 4.32 6.54574 4.31438 6.86137 4.68188L7.64824 5.59813C7.70262 5.66125 7.80199 5.65438 7.84699 5.58438Z" fill="url(#paint5_radial_2328_195)"/>
<path d="M7.84699 5.58438C8.80762 4.08625 9.37637 2.7025 9.67262 1.72375C9.78637 1.34875 10.2664 1.19563 10.5514 1.46438C14.847 5.515 16.2514 8.60813 16.5307 12.1819C16.7357 15.6388 15.037 18.715 10.4764 18.715C6.19512 18.715 3.03449 15.7269 3.46387 10.99C3.72137 8.16 4.82199 6.00313 5.70137 4.71938C5.97512 4.32 6.54574 4.31438 6.86137 4.68188L7.64824 5.59813C7.70262 5.66125 7.80199 5.65438 7.84699 5.58438Z" fill="url(#paint6_radial_2328_195)"/>
<path d="M7.84699 5.58438C8.80762 4.08625 9.37637 2.7025 9.67262 1.72375C9.78637 1.34875 10.2664 1.19563 10.5514 1.46438C14.847 5.515 16.2514 8.60813 16.5307 12.1819C16.7357 15.6388 15.037 18.715 10.4764 18.715C6.19512 18.715 3.03449 15.7269 3.46387 10.99C3.72137 8.16 4.82199 6.00313 5.70137 4.71938C5.97512 4.32 6.54574 4.31438 6.86137 4.68188L7.64824 5.59813C7.70262 5.66125 7.80199 5.65438 7.84699 5.58438Z" fill="url(#paint7_radial_2328_195)"/>
<g filter="url(#filter0_i_2328_195)">
<path d="M6.36125 12.4231C7.175 10.4856 8.84563 8.34251 9.97375 7.17938C10.1268 7.02288 10.3351 6.9327 10.5539 6.92826C10.7727 6.92382 10.9845 7.00547 11.1438 7.15563C13.3069 9.14876 13.9581 10.9506 14.5106 13.0481C15.0856 15.2306 14.5106 18.7469 10.185 18.7469C6.46 18.7469 5.16875 15.2606 6.36125 12.4231Z" fill="url(#paint8_radial_2328_195)"/>
<path d="M6.36125 12.4231C7.175 10.4856 8.84563 8.34251 9.97375 7.17938C10.1268 7.02288 10.3351 6.9327 10.5539 6.92826C10.7727 6.92382 10.9845 7.00547 11.1438 7.15563C13.3069 9.14876 13.9581 10.9506 14.5106 13.0481C15.0856 15.2306 14.5106 18.7469 10.185 18.7469C6.46 18.7469 5.16875 15.2606 6.36125 12.4231Z" fill="url(#paint9_radial_2328_195)"/>
<path d="M6.36125 12.4231C7.175 10.4856 8.84563 8.34251 9.97375 7.17938C10.1268 7.02288 10.3351 6.9327 10.5539 6.92826C10.7727 6.92382 10.9845 7.00547 11.1438 7.15563C13.3069 9.14876 13.9581 10.9506 14.5106 13.0481C15.0856 15.2306 14.5106 18.7469 10.185 18.7469C6.46 18.7469 5.16875 15.2606 6.36125 12.4231Z" fill="url(#paint10_radial_2328_195)"/>
</g>
<path d="M6.36125 12.4231C7.175 10.4856 8.84563 8.34251 9.97375 7.17938C10.1268 7.02288 10.3351 6.9327 10.5539 6.92826C10.7727 6.92382 10.9845 7.00547 11.1438 7.15563C13.3069 9.14876 13.9581 10.9506 14.5106 13.0481C15.0856 15.2306 14.5106 18.7469 10.185 18.7469C6.46 18.7469 5.16875 15.2606 6.36125 12.4231Z" fill="url(#paint11_linear_2328_195)"/>
<path d="M6.36125 12.4231C7.175 10.4856 8.84563 8.34251 9.97375 7.17938C10.1268 7.02288 10.3351 6.9327 10.5539 6.92826C10.7727 6.92382 10.9845 7.00547 11.1438 7.15563C13.3069 9.14876 13.9581 10.9506 14.5106 13.0481C15.0856 15.2306 14.5106 18.7469 10.185 18.7469C6.46 18.7469 5.16875 15.2606 6.36125 12.4231Z" fill="url(#paint12_radial_2328_195)"/>
<g filter="url(#filter1_f_2328_195)">
<path d="M7.38395 7.21188C8.83083 5.09313 9.6777 2.80063 9.93583 2.23563C9.55895 5.13188 8.46083 7.25313 6.39333 9.98438C4.73958 12.1694 4.44083 14.0394 4.4552 14.495C3.93833 11.0188 5.57458 9.86 7.38395 7.21188Z" fill="url(#paint13_linear_2328_195)"/>
</g>
<g filter="url(#filter2_f_2328_195)">
<path d="M6.13386 4.92125C5.32136 5.93 3.70573 8.7275 3.74636 11.8487C4.54636 8.6475 6.41823 7.63875 6.13386 4.92125Z" fill="url(#paint14_linear_2328_195)"/>
</g>
<defs>
<filter id="filter0_i_2328_195" x="5.93115" y="6.92809" width="9.26562" height="11.8188" filterUnits="userSpaceOnUse" color-interpolation-filters="sRGB">
<feFlood flood-opacity="0" result="BackgroundImageFix"/>
<feBlend mode="normal" in="SourceGraphic" in2="BackgroundImageFix" result="shape"/>
<feColorMatrix in="SourceAlpha" type="matrix" values="0 0 0 0 0 0 0 0 0 0 0 0 0 0 0 0 0 0 127 0" result="hardAlpha"/>
<feOffset dx="0.5"/>
<feGaussianBlur stdDeviation="0.25"/>
<feComposite in2="hardAlpha" operator="arithmetic" k2="-1" k3="1"/>
<feColorMatrix type="matrix" values="0 0 0 0 0.952941 0 0 0 0 0.615686 0 0 0 0 0.364706 0 0 0 1 0"/>
<feBlend mode="normal" in2="shape" result="effect1_innerShadow_2328_195"/>
</filter>
<filter id="filter1_f_2328_195" x="3.1084" y="0.985626" width="8.07764" height="14.7594" filterUnits="userSpaceOnUse" color-interpolation-filters="sRGB">
<feFlood flood-opacity="0" result="BackgroundImageFix"/>
<feBlend mode="normal" in="SourceGraphic" in2="BackgroundImageFix" result="shape"/>
<feGaussianBlur stdDeviation="0.625" result="effect1_foregroundBlur_2328_195"/>
</filter>
<filter id="filter2_f_2328_195" x="2.24561" y="3.42125" width="5.41748" height="9.92751" filterUnits="userSpaceOnUse" color-interpolation-filters="sRGB">
<feFlood flood-opacity="0" result="BackgroundImageFix"/>
<feBlend mode="normal" in="SourceGraphic" in2="BackgroundImageFix" result="shape"/>
<feGaussianBlur stdDeviation="0.75" result="effect1_foregroundBlur_2328_195"/>
</filter>
<radialGradient id="paint0_radial_2328_195" cx="0" cy="0" r="1" gradientUnits="userSpaceOnUse" gradientTransform="translate(15.001 12.3251) rotate(-179.474) scale(10.6867 16.1163)">
<stop stop-color="#FF953D"/>
<stop offset="1" stop-color="#FF5141"/>
</radialGradient>
<radialGradient id="paint1_radial_2328_195" cx="0" cy="0" r="1" gradientUnits="userSpaceOnUse" gradientTransform="translate(6.48276 9.7838) rotate(-157.937) scale(6.46506 11.1559)">
<stop stop-color="#CE5327"/>
<stop offset="1" stop-color="#CE5327" stop-opacity="0"/>
</radialGradient>
<linearGradient id="paint2_linear_2328_195" x1="11.4601" y1="18.715" x2="11.4601" y2="15.5288" gradientUnits="userSpaceOnUse">
<stop stop-color="#FF7583"/>
<stop offset="1" stop-color="#FF7583" stop-opacity="0"/>
</linearGradient>
<radialGradient id="paint3_radial_2328_195" cx="0" cy="0" r="1" gradientUnits="userSpaceOnUse" gradientTransform="translate(3.09858 8.99474) rotate(24.015) scale(1.94041 16.0619)">
<stop stop-color="#FFAA7B"/>
<stop offset="1" stop-color="#FFAA7B" stop-opacity="0"/>
</radialGradient>
<radialGradient id="paint4_radial_2328_195" cx="0" cy="0" r="1" gradientUnits="userSpaceOnUse" gradientTransform="translate(5.81887 3.90625) rotate(77.3197) scale(2.40022 2.99492)">
<stop stop-color="#FF5E47"/>
<stop offset="1" stop-color="#FF5E47" stop-opacity="0"/>
</radialGradient>
<radialGradient id="paint5_radial_2328_195" cx="0" cy="0" r="1" gradientUnits="userSpaceOnUse" gradientTransform="translate(10.2682 0.853751) rotate(87.8819) scale(6.33587 5.86451)">
<stop stop-color="#FF2F3C"/>
<stop offset="1" stop-color="#FF2F3C" stop-opacity="0"/>
</radialGradient>
<radialGradient id="paint6_radial_2328_195" cx="0" cy="0" r="1" gradientUnits="userSpaceOnUse" gradientTransform="translate(8.68762 3) rotate(25.3283) scale(1.43684 2.88345)">
<stop stop-color="#FF846C"/>
<stop offset="1" stop-color="#FF846C" stop-opacity="0"/>
</radialGradient>
<radialGradient id="paint7_radial_2328_195" cx="0" cy="0" r="1" gradientUnits="userSpaceOnUse" gradientTransform="translate(7.78637 5.13125) rotate(113.224) scale(1.42398 0.326316)">
<stop stop-color="#FFA682"/>
<stop offset="1" stop-color="#FFA682" stop-opacity="0"/>
</radialGradient>
<radialGradient id="paint8_radial_2328_195" cx="0" cy="0" r="1" gradientUnits="userSpaceOnUse" gradientTransform="translate(13.2524 15.2352) rotate(-168.558) scale(6.26819 7.80569)">
<stop stop-color="#FFDA2F"/>
<stop offset="1" stop-color="#FF8E41"/>
</radialGradient>
<radialGradient id="paint9_radial_2328_195" cx="0" cy="0" r="1" gradientUnits="userSpaceOnUse" gradientTransform="translate(7.75 5.37001) rotate(69.044) scale(8.83906 7.67994)">
<stop stop-color="#FD5639"/>
<stop offset="1" stop-color="#FE5533" stop-opacity="0"/>
</radialGradient>
<radialGradient id="paint10_radial_2328_195" cx="0" cy="0" r="1" gradientUnits="userSpaceOnUse" gradientTransform="translate(12.0244 12.8931) rotate(174.239) scale(6.12416 14.9946)">
<stop offset="0.628" stop-color="#D7812D" stop-opacity="0"/>
<stop offset="1" stop-color="#D7812D"/>
</radialGradient>
<linearGradient id="paint11_linear_2328_195" x1="10.3144" y1="6.63251" x2="10.3144" y2="8.91188" gradientUnits="userSpaceOnUse">
<stop stop-color="#F95131"/>
<stop offset="1" stop-color="#F95131" stop-opacity="0"/>
</linearGradient>
<radialGradient id="paint12_radial_2328_195" cx="0" cy="0" r="1" gradientUnits="userSpaceOnUse" gradientTransform="translate(14.3662 11.7519) rotate(143.063) scale(10.0341 7.26088)">
<stop offset="0.772" stop-color="#F18A52" stop-opacity="0"/>
<stop offset="1" stop-color="#F18A52"/>
</radialGradient>
<linearGradient id="paint13_linear_2328_195" x1="9.3727" y1="2.65938" x2="4.78458" y2="14.2075" gradientUnits="userSpaceOnUse">
<stop stop-color="#FF7558"/>
<stop offset="1" stop-color="#F38758"/>
</linearGradient>
<linearGradient id="paint14_linear_2328_195" x1="5.96323" y1="5.09" x2="3.48886" y2="12.1744" gradientUnits="userSpaceOnUse">
<stop stop-color="#FF815B"/>
<stop offset="1" stop-color="#FF9C6D"/>
</linearGradient>
</defs>
</svg>
