<svg width="32" height="32" viewBox="0 0 32 32" fill="none" xmlns="http://www.w3.org/2000/svg">
<rect width="32" height="32" rx="6.09524" fill="#26A4E4"/>
<g clip-path="url(#clip0_4048_6226)">
<path d="M7.73168 15.0934C11.7302 13.3517 14.396 12.2033 15.7288 11.6485C19.5388 10.0643 20.3295 9.78919 20.846 9.77987C20.9595 9.77804 21.2124 9.80612 21.3774 9.93951C21.5145 10.052 21.5531 10.2042 21.5724 10.311C21.5895 10.4177 21.6131 10.6609 21.5938 10.8508C21.3881 13.0193 20.4945 18.2818 20.0402 20.7107C19.8495 21.7384 19.4702 22.083 19.1038 22.1166C18.3067 22.1899 17.7024 21.5903 16.931 21.0848C15.7245 20.2935 15.0431 19.801 13.871 19.029C12.5167 18.1367 13.3952 17.6462 14.1667 16.8448C14.3681 16.635 17.8781 13.4432 17.9445 13.1537C17.9531 13.1175 17.9617 12.9825 17.8802 12.9113C17.801 12.84 17.6831 12.8644 17.5974 12.8837C17.4752 12.9111 15.5488 14.1857 11.8117 16.7072C11.2652 17.083 10.7702 17.2663 10.3245 17.2566C9.83596 17.2461 8.89311 16.9798 8.19239 16.7522C7.33525 16.473 6.65168 16.3253 6.71168 15.8511C6.74168 15.6043 7.08239 15.3516 7.73168 15.0934V15.0934Z" fill="white"/>
</g>
<defs>
<clipPath id="clip0_4048_6226">
<rect width="27.4286" height="27.4286" fill="white" transform="translate(1.52393 1.52393)"/>
</clipPath>
</defs>
</svg>
