<svg width="32" height="32" viewBox="0 0 32 32" fill="none" xmlns="http://www.w3.org/2000/svg">
<rect width="32" height="32" rx="6.09524" fill="#2CB742"/>
<path d="M20.0358 17.3314C19.7763 17.198 18.4834 16.5647 18.2429 16.479C18.0025 16.3885 17.8263 16.3457 17.6525 16.6123C17.4763 16.8766 16.9763 17.4647 16.8191 17.6433C16.6668 17.8195 16.512 17.8409 16.2525 17.7099C14.7096 16.9385 13.6977 16.3338 12.681 14.5885C12.412 14.1242 12.9501 14.1576 13.4525 13.1552C13.5382 12.979 13.4953 12.829 13.4287 12.6957C13.362 12.5623 12.8382 11.2718 12.6191 10.7457C12.4072 10.2338 12.1882 10.3052 12.0287 10.2957C11.8763 10.2861 11.7025 10.2861 11.5263 10.2861C11.3501 10.2861 11.0668 10.3528 10.8263 10.6123C10.5858 10.8766 9.90723 11.5123 9.90723 12.8028C9.90723 14.0933 10.8477 15.3433 10.9763 15.5195C11.1096 15.6957 12.8263 18.3433 15.462 19.4838C17.1287 20.2028 17.781 20.2647 18.6144 20.1409C19.1215 20.0647 20.1667 19.5076 20.3834 18.8909C20.6001 18.2766 20.6001 17.7504 20.5358 17.6409C20.4715 17.5242 20.2953 17.4576 20.0358 17.3314Z" fill="white"/>
<path d="M25.0767 11.1051C24.5386 9.82654 23.7672 8.67892 22.7838 7.69321C21.8005 6.70987 20.6529 5.93606 19.3719 5.40035C18.0624 4.85035 16.6719 4.57178 15.2386 4.57178H15.191C13.7481 4.57892 12.3505 4.86463 11.0362 5.42654C9.76715 5.9694 8.62906 6.74082 7.65525 7.72416C6.68144 8.70749 5.91715 9.85035 5.38858 11.1242C4.84096 12.4432 4.56477 13.8456 4.57191 15.2884C4.57906 16.9408 4.97429 18.5813 5.71477 20.048V23.667C5.71477 24.2718 6.20525 24.7623 6.81001 24.7623H10.4314C11.8981 25.5027 13.5386 25.898 15.191 25.9051H15.241C16.6672 25.9051 18.0505 25.6289 19.3529 25.0884C20.6267 24.5575 21.7719 23.7956 22.7529 22.8218C23.7362 21.848 24.51 20.7099 25.0505 19.4408C25.6124 18.1265 25.8981 16.7289 25.9052 15.2861C25.9124 13.8361 25.6314 12.4289 25.0767 11.1051V11.1051ZM21.4791 21.5337C19.81 23.1861 17.5957 24.0956 15.2386 24.0956H15.1981C13.7624 24.0884 12.3362 23.7313 11.0767 23.0599L10.8767 22.9527H7.52429V19.6003L7.41715 19.4003C6.74572 18.1408 6.38858 16.7146 6.38144 15.2789C6.37191 12.9051 7.27906 10.6765 8.94334 8.99797C10.6052 7.3194 12.8267 6.39082 15.2005 6.3813H15.241C16.4314 6.3813 17.5862 6.61225 18.6743 7.0694C19.7362 7.51463 20.6886 8.15511 21.5076 8.97416C22.3243 9.79082 22.9672 10.7456 23.4124 11.8075C23.8743 12.9075 24.1052 14.0742 24.1005 15.2789C24.0862 17.6503 23.1552 19.8718 21.4791 21.5337V21.5337Z" fill="white"/>
</svg>
